<svg id="Capa_1" data-name="Capa 1" xmlns="http://www.w3.org/2000/svg" xmlns:xlink="http://www.w3.org/1999/xlink" viewBox="0 0 283.46 283.46"><defs><style>.cls-1{fill:url(#Degradado_sin_nombre_9);}.cls-2{fill:#fff;}</style><linearGradient id="Degradado_sin_nombre_9" x1="-481.94" y1="142.67" x2="709" y2="142.67" gradientUnits="userSpaceOnUse"><stop offset="0" stop-color="#1c898d"/><stop offset="0.69" stop-color="#50ab33"/><stop offset="1" stop-color="#d4d704"/></linearGradient></defs><circle class="cls-1" cx="140.23" cy="142.67" r="128.66"/><path class="cls-2" d="M139.66,81.85a60.82,60.82,0,1,0,60.82,60.82A60.88,60.88,0,0,0,139.66,81.85Zm0,114a53.22,53.22,0,1,1,53.21-53.21A53.27,53.27,0,0,1,139.66,195.88Zm32.68-36.3a42.28,42.28,0,0,1-59.51,5.85,41.47,41.47,0,0,1-5.85-5.85,3.8,3.8,0,1,1,5.86-4.84v0a34.69,34.69,0,0,0,48.81,4.8,35.12,35.12,0,0,0,4.8-4.8,3.8,3.8,0,0,1,5.88,4.82Zm-23.86-27.42v-2.68c0-5.6,5.22-10.15,11.64-10.15s11.64,4.55,11.64,10.15v2.68a3.8,3.8,0,1,1-7.6,0v-2.68c0-1.2-1.73-2.55-4-2.55s-4,1.35-4,2.55v2.68a3.8,3.8,0,0,1-7.6,0Zm-40.93,0v-2.68c0-5.6,5.22-10.15,11.64-10.15s11.64,4.55,11.64,10.15v2.68a3.8,3.8,0,0,1-7.6,0v-2.68c0-1.2-1.73-2.55-4-2.55s-4,1.35-4,2.55v2.68a3.8,3.8,0,0,1-7.6,0Z"/></svg>