<svg id="Capa_1" data-name="Capa 1" xmlns="http://www.w3.org/2000/svg" xmlns:xlink="http://www.w3.org/1999/xlink" viewBox="0 0 283.46 283.46"><defs><style>.cls-1{fill:url(#Degradado_sin_nombre_9);}.cls-2{fill:#fff;fill-rule:evenodd;}</style><linearGradient id="Degradado_sin_nombre_9" x1="-4.21" y1="142.67" x2="1186.73" y2="142.67" gradientUnits="userSpaceOnUse"><stop offset="0" stop-color="#1c898d"/><stop offset="0.69" stop-color="#50ab33"/><stop offset="1" stop-color="#d4d704"/></linearGradient></defs><circle class="cls-1" cx="139.88" cy="142.67" r="128.66"/><path class="cls-2" d="M79.36,142.67a60.82,60.82,0,1,1,60.82,60.82A60.82,60.82,0,0,1,79.36,142.67Zm60.82-52.34a52.34,52.34,0,1,0,52.33,52.34A52.33,52.33,0,0,0,140.18,90.33Z"/><path class="cls-2" d="M124.16,160.55a4.24,4.24,0,0,0-7.58,3.82l3.8-1.9-3.8,1.9h0v0l0,.05.08.16.28.49c.24.4.58.94,1,1.58a27.75,27.75,0,0,0,4.13,4.61,27.5,27.5,0,0,0,36,0,27.43,27.43,0,0,0,4.14-4.61c.45-.64.79-1.18,1-1.58.12-.2.22-.37.28-.49l.09-.16,0-.05v0h0l-3.79-1.9,3.79,1.9a4.24,4.24,0,0,0-7.57-3.82l0,0-.13.22c-.13.22-.34.56-.64,1a18.29,18.29,0,0,1-2.85,3.18,19,19,0,0,1-24.77,0,19.16,19.16,0,0,1-2.85-3.18c-.3-.42-.51-.76-.64-1a2.12,2.12,0,0,0-.13-.22Z"/><path class="cls-2" d="M115.67,126.59a4.25,4.25,0,0,0-7.58,3.83l3.8-1.9-3.8,1.9h0v0l0,0,.05.09a3.08,3.08,0,0,0,.16.29c.13.23.31.54.55.89a17.35,17.35,0,0,0,2.12,2.59,12.81,12.81,0,0,0,18.73,0,17.35,17.35,0,0,0,2.12-2.59c.24-.35.42-.66.55-.89a3.08,3.08,0,0,0,.16-.29l.05-.09,0,0v0h0s0,0-3.79-1.91l3.8,1.9a4.25,4.25,0,0,0-7.58-3.83l0,.07c0,.08-.13.22-.25.39a8.68,8.68,0,0,1-1.06,1.3,4.36,4.36,0,0,1-6.73,0,8.68,8.68,0,0,1-1.06-1.3,3.21,3.21,0,0,1-.24-.39Z"/><path class="cls-2" d="M155.27,126.59a4.24,4.24,0,0,0-7.57,3.83l3.79-1.9-3.79,1.9h0v0l0,0,.05.09.16.29c.13.23.32.54.55.89a17.35,17.35,0,0,0,2.12,2.59,12.82,12.82,0,0,0,18.74,0,17.35,17.35,0,0,0,2.12-2.59c.23-.35.42-.66.55-.89l.16-.29,0-.09,0,0v0h0s0,0-3.79-1.91l3.79,1.9a4.24,4.24,0,0,0-7.57-3.83l0,.07c-.05.08-.13.22-.25.39a7.58,7.58,0,0,1-1.06,1.3,4.35,4.35,0,0,1-6.72,0,8.23,8.23,0,0,1-1.07-1.3l-.24-.39Z"/></svg>