<svg id="Capa_1" data-name="Capa 1" xmlns="http://www.w3.org/2000/svg" xmlns:xlink="http://www.w3.org/1999/xlink" viewBox="0 0 283.46 283.46"><defs><style>.cls-1{fill:url(#Degradado_sin_nombre_9);}.cls-2,.cls-3{fill:#fff;}.cls-2{fill-rule:evenodd;}</style><linearGradient id="Degradado_sin_nombre_9" x1="-958.76" y1="142.67" x2="232.19" y2="142.67" gradientUnits="userSpaceOnUse"><stop offset="0" stop-color="#1c898d"/><stop offset="0.69" stop-color="#50ab33"/><stop offset="1" stop-color="#d4d704"/></linearGradient></defs><circle class="cls-1" cx="141.5" cy="142.67" r="128.66"/><path class="cls-2" d="M142.26,91.2a51.47,51.47,0,1,0,51.47,51.47A51.47,51.47,0,0,0,142.26,91.2ZM81.44,142.67a60.82,60.82,0,1,1,60.82,60.82A60.82,60.82,0,0,1,81.44,142.67Z"/><path class="cls-3" d="M121.21,138a7,7,0,1,0-7-7A7,7,0,0,0,121.21,138Z"/><path class="cls-2" d="M151.62,131a4.68,4.68,0,0,1,4.68-4.68h14a4.68,4.68,0,0,1,0,9.36h-14A4.67,4.67,0,0,1,151.62,131Z"/><path class="cls-2" d="M115.59,152.66a4.67,4.67,0,0,1,6.39,1.69,23.44,23.44,0,0,0,40.56,0,4.68,4.68,0,0,1,8.1,4.7,32.81,32.81,0,0,1-56.75,0A4.67,4.67,0,0,1,115.59,152.66Z"/></svg>