<svg id="Capa_1" data-name="Capa 1" xmlns="http://www.w3.org/2000/svg" xmlns:xlink="http://www.w3.org/1999/xlink" viewBox="0 0 283.46 283.46"><defs><style>.cls-1{fill:url(#Degradado_sin_nombre_9);}.cls-2{fill:#fff;}</style><linearGradient id="Degradado_sin_nombre_9" x1="-708.02" y1="140.11" x2="1314.48" y2="140.11" gradientUnits="userSpaceOnUse"><stop offset="0" stop-color="#1c898d"/><stop offset="0.69" stop-color="#50ab33"/><stop offset="1" stop-color="#d4d704"/></linearGradient></defs><circle class="cls-1" cx="143.41" cy="140.11" r="134.57"/><path class="cls-2" d="M179.5,122.37V100.75a36.28,36.28,0,0,0-10.83-26.06A35.13,35.13,0,0,0,143.75,64.3h-.47a36.36,36.36,0,0,0-36.15,36.45v21.62a14.77,14.77,0,0,0-13,14.85v48.57A15,15,0,0,0,109,200.85H177.7a15,15,0,0,0,14.85-15.06V137.22A14.84,14.84,0,0,0,179.5,122.37Zm-66.61-21.62h0A30.63,30.63,0,0,1,143.31,70h0a30,30,0,0,1,21.25,8.75,30.66,30.66,0,0,1,9.09,22V122.4h-6.37V100.75a24.39,24.39,0,0,0-7.21-17.52,23.47,23.47,0,0,0-16.59-6.89h-.17a24.23,24.23,0,0,0-24.08,24.38V122.4h-6.37V100.75Zm48.66,0V122.4H125.07V100.75a18.44,18.44,0,0,1,18.3-18.59h.17a17.76,17.76,0,0,1,12.54,5.21A18.66,18.66,0,0,1,161.55,100.75ZM187,185.88h0a9.18,9.18,0,0,1-9.17,9.18H109.07a9.18,9.18,0,0,1-9.18-9.18V137.36a9.18,9.18,0,0,1,9.18-9.17h68.78a9.18,9.18,0,0,1,9.17,9.17v48.52Z"/><path class="cls-2" d="M153.33,159.83a10.44,10.44,0,1,0-12.91,12.91v8.1a2.9,2.9,0,1,0,5.79,0v-8.1A10.41,10.41,0,0,0,153.33,159.83Zm-10,7.52a4.66,4.66,0,1,1,4.66-4.66A4.66,4.66,0,0,1,143.31,167.35Z"/></svg>