<svg id="Capa_1" data-name="Capa 1" xmlns="http://www.w3.org/2000/svg" xmlns:xlink="http://www.w3.org/1999/xlink" viewBox="0 0 283.46 283.46"><defs><style>.cls-1{fill:url(#Degradado_sin_nombre_9);}.cls-2{fill:#fff;}</style><linearGradient id="Degradado_sin_nombre_9" x1="-1387.86" y1="139.21" x2="608.8" y2="139.21" gradientUnits="userSpaceOnUse"><stop offset="0" stop-color="#1c898d"/><stop offset="0.69" stop-color="#50ab33"/><stop offset="1" stop-color="#d4d704"/></linearGradient></defs><circle class="cls-1" cx="140.37" cy="139.21" r="132.85"/><path class="cls-2" d="M181.32,202H98.52a13.81,13.81,0,0,1-13.8-13.8V83.33a13.81,13.81,0,0,1,13.8-13.8h82.8a13.81,13.81,0,0,1,13.8,13.8V188.21A13.81,13.81,0,0,1,181.32,202Zm-82.8-127a8.28,8.28,0,0,0-8.28,8.28V188.21a8.29,8.29,0,0,0,8.28,8.28h82.8a8.29,8.29,0,0,0,8.28-8.28V83.33a8.28,8.28,0,0,0-8.28-8.28Z"/><path class="cls-2" d="M170.28,113.69H109.56a8.29,8.29,0,0,1-8.28-8.28v-11a8.28,8.28,0,0,1,8.28-8.28h60.72a8.28,8.28,0,0,1,8.28,8.28v11A8.29,8.29,0,0,1,170.28,113.69ZM109.56,91.61a2.76,2.76,0,0,0-2.76,2.76v11a2.77,2.77,0,0,0,2.76,2.76h60.72a2.77,2.77,0,0,0,2.76-2.76v-11a2.76,2.76,0,0,0-2.76-2.76Z"/><path class="cls-2" d="M117.84,146.81a2.77,2.77,0,0,1-2.76-2.76V127.49a2.76,2.76,0,0,1,5.52,0v16.56A2.77,2.77,0,0,1,117.84,146.81Z"/><path class="cls-2" d="M126.12,138.53H109.56a2.76,2.76,0,0,1,0-5.52h16.56a2.76,2.76,0,0,1,0,5.52Z"/><path class="cls-2" d="M170.28,138.53H153.72a2.76,2.76,0,0,1,0-5.52h16.56a2.76,2.76,0,0,1,0,5.52Z"/><path class="cls-2" d="M170.28,163.37H153.72a2.76,2.76,0,0,1,0-5.52h16.56a2.76,2.76,0,0,1,0,5.52Z"/><path class="cls-2" d="M170.28,179.93H153.72a2.76,2.76,0,1,1,0-5.52h16.56a2.76,2.76,0,1,1,0,5.52Z"/><path class="cls-2" d="M109.56,179.93a2.76,2.76,0,0,1-2-4.71l16.56-16.56a2.76,2.76,0,0,1,3.9,3.9l-16.56,16.56a2.74,2.74,0,0,1-2,.81Z"/><path class="cls-2" d="M126.12,179.93a2.74,2.74,0,0,1-2-.81l-16.56-16.56a2.76,2.76,0,0,1,3.9-3.9l16.56,16.56a2.76,2.76,0,0,1-1.95,4.71Z"/></svg>