<svg id="Capa_1" data-name="Capa 1" xmlns="http://www.w3.org/2000/svg" xmlns:xlink="http://www.w3.org/1999/xlink" viewBox="0 0 283.46 283.46"><defs><style>.cls-1{fill:url(#Degradado_sin_nombre_9);}.cls-2{fill:#fff;}</style><linearGradient id="Degradado_sin_nombre_9" x1="-13.49" y1="143.13" x2="2017.81" y2="143.13" gradientUnits="userSpaceOnUse"><stop offset="0" stop-color="#1c898d"/><stop offset="0.69" stop-color="#50ab33"/><stop offset="1" stop-color="#d4d704"/></linearGradient></defs><circle class="cls-1" cx="142.03" cy="143.13" r="135.15"/><path class="cls-2" d="M142.77,198.92a55.53,55.53,0,1,1,55.52-55.53,4.07,4.07,0,1,0,8.13,0,63.66,63.66,0,1,0-63.65,63.66,4.07,4.07,0,0,0,0-8.13Z"/><path class="cls-2" d="M138.7,100.05v44.7h-23a4.06,4.06,0,0,0,0,8.12h27.09a4.06,4.06,0,0,0,4.06-4.06V100.05a4.07,4.07,0,0,0-8.13,0Z"/><path class="cls-2" d="M175.27,144.75a31.15,31.15,0,1,0,31.15,31.15,31.15,31.15,0,0,0-31.15-31.15Zm.38,45a4.08,4.08,0,0,1-5.7.79l-12.42-9.39a4.07,4.07,0,0,1,4.9-6.49l9.19,6.95,12.94-17.13a4.06,4.06,0,0,1,6.48,4.9Z"/></svg>