<svg id="Capa_1" data-name="Capa 1" xmlns="http://www.w3.org/2000/svg" xmlns:xlink="http://www.w3.org/1999/xlink" viewBox="0 0 283.46 283.46"><defs><style>.cls-1{fill:url(#Degradado_sin_nombre_9);}.cls-2{fill:#fff;}</style><linearGradient id="Degradado_sin_nombre_9" x1="-368.5" y1="141.04" x2="1687.6" y2="141.04" gradientUnits="userSpaceOnUse"><stop offset="0" stop-color="#1c898d"/><stop offset="0.69" stop-color="#50ab33"/><stop offset="1" stop-color="#d4d704"/></linearGradient></defs><circle class="cls-1" cx="142.99" cy="141.04" r="136.8"/><path class="cls-2" d="M142.38,76.37A64.67,64.67,0,1,0,207.05,141,64.74,64.74,0,0,0,142.38,76.37Zm0,121.25A56.59,56.59,0,1,1,199,141,56.65,56.65,0,0,1,142.38,197.62ZM177.13,159a44.93,44.93,0,0,1-69.5,0,4,4,0,0,1,6.23-5.15l0,0A36.87,36.87,0,0,0,165.77,159a36.29,36.29,0,0,0,5.11-5.11,4,4,0,0,1,6.25,5.13Zm-25.37-29.16V127c0-6,5.55-10.8,12.38-10.8s12.38,4.84,12.38,10.8v2.84a4,4,0,0,1-8.09,0V127c0-1.28-1.83-2.72-4.29-2.72s-4.3,1.44-4.3,2.72v2.84a4,4,0,1,1-8.08,0Zm-43.52,0V127c0-6,5.55-10.8,12.38-10.8S133,121.06,133,127v2.84a4,4,0,0,1-8.09,0V127c0-1.28-1.83-2.72-4.29-2.72s-4.3,1.44-4.3,2.72v2.84a4,4,0,1,1-8.08,0Z"/></svg>