<svg id="Capa_1" data-name="Capa 1" xmlns="http://www.w3.org/2000/svg" xmlns:xlink="http://www.w3.org/1999/xlink" viewBox="0 0 283.46 283.46"><defs><style>.cls-1{fill:url(#Degradado_sin_nombre_9);}.cls-2{fill:#fff;}</style><linearGradient id="Degradado_sin_nombre_9" x1="-1787.94" y1="140.71" x2="270.29" y2="140.71" gradientUnits="userSpaceOnUse"><stop offset="0" stop-color="#1c898d"/><stop offset="0.69" stop-color="#50ab33"/><stop offset="1" stop-color="#d4d704"/></linearGradient></defs><circle class="cls-1" cx="141.87" cy="140.71" r="136.95"/><g id="Layer_11" data-name="Layer 11"><path class="cls-2" d="M111.89,184.3c-6.84,3.93-14.54,5.34-19.11,5.84.51-4.56,1.92-12.27,5.84-19.11a3.73,3.73,0,0,0-6.47-3.71c-7,12.25-7.1,26.24-7.1,26.83a3.73,3.73,0,0,0,3.72,3.73c.6,0,14.59-.08,26.84-7.11a3.73,3.73,0,0,0-3.72-6.47Z"/><path class="cls-2" d="M203.41,88.57a8.86,8.86,0,0,0-2.6-6.47,9.46,9.46,0,0,0-6.45-2.58c-10.32.19-38.16,3.15-64.5,26.8-4.7-1.83-11.78-4.54-17.15-3.85-7.9,1-19.57,11.76-31,23.24a6.13,6.13,0,0,0,2.48,10.16l18.18,5.84c-1.37,2.5-2.72,5.06-4,7.76a8.87,8.87,0,0,0,1.73,10.14l23.24,23.25a8.89,8.89,0,0,0,10.15,1.73c2.7-1.3,5.26-2.65,7.75-4l5.85,18.18a6.1,6.1,0,0,0,4.4,4.09,6,6,0,0,0,1.46.18,6.08,6.08,0,0,0,4.3-1.79c11.47-11.44,22.22-23.11,23.24-31,.7-5.42-2-12.45-3.85-17.15C200.25,126.73,203.21,98.89,203.41,88.57ZM88.52,129.43c6.06-6,19.24-18.81,25.14-19.57,2.63-.33,6.76.92,10.25,2.18a133.36,133.36,0,0,0-17.72,23.07Zm41.7,48.45a1.46,1.46,0,0,1-1.63-.29l-23.25-23.25a1.45,1.45,0,0,1-.29-1.64c29-60,75.79-65.47,89.45-65.73h0a1.37,1.37,0,0,1,1,.41,1.43,1.43,0,0,1,.42,1.05C195.7,102.1,190.19,148.93,130.22,177.88Zm42.84-8.61c-.76,5.89-13.52,19.08-19.57,25.14l-5.68-17.67A133.84,133.84,0,0,0,170.89,159C172.16,162.5,173.4,166.62,173.06,169.27Z"/><path class="cls-2" d="M175.32,129.73a15.67,15.67,0,0,0,0-22.13,16,16,0,0,0-22.12,0,15.64,15.64,0,1,0,22.12,22.13Zm-5.27-5.27a8.39,8.39,0,0,1-11.58,0,8.18,8.18,0,1,1,11.58,0Z"/></g></svg>