<svg id="Capa_1" data-name="Capa 1" xmlns="http://www.w3.org/2000/svg" xmlns:xlink="http://www.w3.org/1999/xlink" viewBox="0 0 283.46 283.46"><defs><style>.cls-1{fill:url(#Degradado_sin_nombre_9);}.cls-2{fill:#fff;}</style><linearGradient id="Degradado_sin_nombre_9" x1="-1040.78" y1="139.62" x2="956.34" y2="139.62" gradientUnits="userSpaceOnUse"><stop offset="0" stop-color="#1c898d"/><stop offset="0.69" stop-color="#50ab33"/><stop offset="1" stop-color="#d4d704"/></linearGradient></defs><circle class="cls-1" cx="143.88" cy="139.62" r="132.88"/><path class="cls-2" d="M91.58,117.48h15.74a8.79,8.79,0,0,1,7.61,4.2l7.61-5.51a25.16,25.16,0,0,0,10.49-21V78.92a3.61,3.61,0,0,1,2.62-3.41c15.74-5.51,22.82-1.05,25.71,7.34,2.62,7.61,1.31,18.63.79,26.5a3,3,0,0,0,3.14,3.14h20.2c12.59,0,20.46,12.86,18.36,24.4L197,172.83a21.67,21.67,0,0,1-21.51,17.83H130.67a21.9,21.9,0,0,1-15.22-6,9,9,0,0,1-8.13,5H91.58a9.29,9.29,0,0,1-9.18-9.18V126.92a9,9,0,0,1,9.18-9.44ZM116.5,129v46.43c.79.52,1.31,1.84,1.84,2.36a14.17,14.17,0,0,0,12.33,6.3h44.85a14.68,14.68,0,0,0,14.69-12.33L197,135.84c1.31-7.34-3.14-16.26-11.54-16.26h-20.2a10.15,10.15,0,0,1-10-10.76c.52-6.82,1.83-17.57-.27-23.87-1.57-4.46-5.51-6.56-14.95-3.67V94.92a32,32,0,0,1-13.38,26.49Zm-9.18-4.46H91.58a2.35,2.35,0,0,0-2.36,2.36v54a2.35,2.35,0,0,0,2.36,2.36h15.74a2.35,2.35,0,0,0,2.36-2.36v-54A2.35,2.35,0,0,0,107.32,124.56Z"/></svg>