<?xml version="1.0" encoding="utf-8"?>
<!-- Generator: Adobe Illustrator 24.1.1, SVG Export Plug-In . SVG Version: 6.00 Build 0)  -->
<svg version="1.1" id="Capa_1" xmlns="http://www.w3.org/2000/svg" xmlns:xlink="http://www.w3.org/1999/xlink" x="0px" y="0px"
	 viewBox="0 0 1920 675.04" style="enable-background:new 0 0 1920 675.04;" xml:space="preserve">
<style type="text/css">
	.st0{fill:#060B0C;}
	.st1{fill:#FFFFFF;}
	.st2{fill:url(#SVGID_1_);}
	.st3{fill:url(#SVGID_2_);}
	.st4{fill:url(#SVGID_3_);}
	.st5{fill:url(#SVGID_4_);}
</style>
<g>
	<path class="st0" d="M345.57,250.27h66.25l48.74,142.71l48.74-142.71h66.25v204.28h-47.57v-132.2l-46.4,132.2h-42.02l-46.11-132.2
		v132.2h-47.86V250.27z"/>
	<path class="st0" d="M591.87,380.13c0-45.53,31.23-77.63,79.38-77.63c47.86,0,79.38,32.1,79.38,77.63s-31.52,77.63-79.38,77.63
		C623.1,457.76,591.87,425.66,591.87,380.13z M671.25,415.44c19.55,0,32.69-14.01,32.69-35.31c0-21.3-13.13-35.31-32.69-35.31
		c-19.55,0-32.39,14.01-32.39,35.31C638.86,401.44,651.7,415.44,671.25,415.44z"/>
	<path class="st0" d="M1146.6,413.4c0-33.27,27.43-49.32,66.83-49.32h23.35v-3.5c0-13.13-8.17-20.72-19.85-20.72
		c-10.8,0-17.22,4.67-19.55,14.01h-46.69c2.92-32.39,27.43-51.36,66.83-51.36c43.78,0,65.95,24.51,65.95,62.45v89.59h-46.69v-14.88
		c-4.96,9.05-18.97,17.51-39.69,17.51C1163.81,457.18,1146.6,439.08,1146.6,413.4z M1209.34,423.03c16.93,0,25.97-12.26,27.43-27.72
		h-21.89c-14.3,0-22.18,5.25-22.18,14.88C1192.71,418.07,1198.25,423.03,1209.34,423.03z"/>
	<path class="st0" d="M1298.06,404.94h43.48c2.04,10.8,11.38,18.09,25.1,18.09c11.09,0,16.05-4.08,16.05-9.92
		c0-22.18-81.71-8.17-81.71-64.49c0-28.31,23.34-46.11,61.87-46.11c35.6,0,61.58,19.26,63.91,50.49h-43.78
		c-1.75-10.21-9.92-16.93-20.72-16.93c-9.92,0-15.18,4.08-15.18,9.92c0,23.35,81.71,7.88,81.42,65.37c0,26.56-19.55,46.4-61.58,46.4
		C1326.65,457.76,1300.39,439.08,1298.06,404.94z"/>
	<path class="st0" d="M1445.43,247.35h46.69v72.96c10.21-13.13,25.39-17.8,41.15-17.8c36.48,0,55.16,25.39,55.16,60.41v91.63h-46.69
		v-81.42c0-18.38-8.75-28.01-24.22-28.01c-16.34,0-25.39,10.8-25.39,28.31v81.13h-46.69V247.35z"/>
	<path class="st0" d="M907.94,289.93c-1.01-3.71-5.93-5.18-8.75-2.05l-30.4,33.71c-1.76,1.95-1.76,4.92,0,6.88l30.4,33.71
		c2.82,3.13,7.75,1.66,8.75-2.05V289.93z"/>
	<g>
		<linearGradient id="SVGID_1_" gradientUnits="userSpaceOnUse" x1="868.119" y1="380.1329" x2="1133.3582" y2="380.1329">
			<stop  offset="0" style="stop-color:#1A898E"/>
			<stop  offset="0.6898" style="stop-color:#4DAB33"/>
			<stop  offset="1" style="stop-color:#D5D800"/>
		</linearGradient>
		<path class="st2" d="M949.35,302.51c-10.16,0-19.56,1.44-28.08,4.13v54.45c5.31-10.19,15.23-16.26,28.08-16.26
			c19.55,0,32.69,14.01,32.69,35.31c0,21.3-13.13,35.31-32.69,35.31c-19.55,0-32.39-14.01-32.39-35.31c0-3.95,0.45-7.64,1.29-11.04
			c-2.55,3.75-6.41,6.52-10.99,7.61c-1.42,0.34-2.85,0.5-4.28,0.5c-5.15,0-10.15-2.17-13.7-6.1l-15.46-17.15
			c-2.51,8.06-3.85,16.83-3.85,26.18c0,45.53,31.23,77.63,79.38,77.63c47.86,0,79.38-32.1,79.38-77.63
			C1028.72,334.61,997.21,302.51,949.35,302.51z"/>
	</g>
	<linearGradient id="SVGID_2_" gradientUnits="userSpaceOnUse" x1="867.2629" y1="341.2745" x2="1132.5021" y2="341.2745">
		<stop  offset="0" style="stop-color:#1A898E"/>
		<stop  offset="0.6898" style="stop-color:#4DAB33"/>
		<stop  offset="1" style="stop-color:#D5D800"/>
	</linearGradient>
	<path class="st3" d="M1060.82,302.51c-45.61,0-76.43,29.27-78.89,72.07c1.23,1.5,1.79,3.5,1.68,5.46h45.1
		c0.04-21.54,12.87-35.22,32.39-35.22c14.59,0,25.1,8.17,28.6,21.89h47.57C1132.03,327.9,1105.76,302.51,1060.82,302.51z"/>
	<path class="st0" d="M825.34,394.43v-50.19h37.4l-9.45-10.48c-4.49-4.98-4.49-12.48,0-17.46l9.54-10.58h-37.49v-36.19h-42.61v12.84
		c0,14.01-7.3,24.52-24.51,24.52H734.9c11.94,9.68,20.94,22.39,26.42,37.35h17.32v59.53c0,31.23,14.01,53.99,52.82,53.99
		c10.51,0,18.68-1.17,27.72-3.21v-38.52c-2.92,0.58-7.59,1.46-12.26,1.46C830.59,417.49,825.34,410.78,825.34,394.43z"/>
	<path class="st0" d="M1089.16,393.84c-3.51,13.16-14.04,21.06-28.38,21.06c-9.63,0-17.62-3.41-23.27-9.4
		c-0.09,0.25-0.19,0.48-0.28,0.73c-4.15,15.29-11.88,28.42-22.46,38.73c12.48,7.91,27.97,12.35,45.72,12.35
		c45.05,0,71.09-25.16,76.65-63.48H1089.16z"/>
</g>
</svg>
