<?xml version="1.0" encoding="UTF-8"?>
<svg id="Capa_1" data-name="Capa 1" xmlns="http://www.w3.org/2000/svg" version="1.1" xmlns:xlink="http://www.w3.org/1999/xlink" viewBox="0 0 1920 1421.65">
  <defs>
    <style>
      .cls-1 {
        fill: #1c898d;
      }

      .cls-1, .cls-2, .cls-3, .cls-4, .cls-5, .cls-6, .cls-7, .cls-8, .cls-9 {
        stroke-width: 0px;
      }

      .cls-2 {
        fill: url(#Degradado_sin_nombre_9);
      }

      .cls-3 {
        fill: #50ab33;
      }

      .cls-4 {
        fill: url(#Degradado_sin_nombre_9-4);
      }

      .cls-5 {
        fill: url(#Degradado_sin_nombre_9-3);
      }

      .cls-6 {
        fill: #060b0c;
      }

      .cls-7 {
        fill: #fff;
      }

      .cls-8 {
        fill: #d4d704;
      }

      .cls-9 {
        fill: url(#Degradado_sin_nombre_9-2);
      }
    </style>
    <linearGradient id="Degradado_sin_nombre_9" data-name="Degradado sin nombre 9" x1="886.73" y1="815.42" x2="1083.29" y2="815.42" gradientUnits="userSpaceOnUse">
      <stop offset="0" stop-color="#1a898e"/>
      <stop offset=".69" stop-color="#4dab33"/>
      <stop offset="1" stop-color="#d5d800"/>
    </linearGradient>
    <linearGradient id="Degradado_sin_nombre_9-2" data-name="Degradado sin nombre 9" x1="886.09" y1="786.62" x2="1082.65" y2="786.62" xlink:href="#Degradado_sin_nombre_9"/>
    <linearGradient id="Degradado_sin_nombre_9-3" data-name="Degradado sin nombre 9" y1="290.44" y2="290.44" xlink:href="#Degradado_sin_nombre_9"/>
    <linearGradient id="Degradado_sin_nombre_9-4" data-name="Degradado sin nombre 9" x1="886.09" y1="261.64" x2="1082.65" y2="261.64" xlink:href="#Degradado_sin_nombre_9"/>
  </defs>
  <rect class="cls-6" y="540" width="1920" height="540"/>
  <g>
    <path class="cls-7" d="M499.47,719.18h49.09l36.12,105.76,36.12-105.76h49.09v151.39h-35.25v-97.97l-34.39,97.97h-31.14l-34.17-97.97v97.97h-35.47v-151.39Z"/>
    <path class="cls-7" d="M682,815.42c0-33.74,23.14-57.53,58.83-57.53s58.83,23.79,58.83,57.53-23.36,57.53-58.83,57.53-58.83-23.79-58.83-57.53ZM740.83,841.59c14.49,0,24.22-10.38,24.22-26.17s-9.73-26.17-24.22-26.17-24.01,10.38-24.01,26.17,9.52,26.17,24.01,26.17Z"/>
    <path class="cls-7" d="M1093.1,840.08c0-24.66,20.33-36.55,49.53-36.55h17.3v-2.59c0-9.73-6.06-15.36-14.71-15.36-8,0-12.76,3.46-14.49,10.38h-34.6c2.16-24.01,20.33-38.06,49.53-38.06,32.44,0,48.88,18.17,48.88,46.28v66.4h-34.6v-11.03c-3.68,6.71-14.06,12.98-29.41,12.98-24.66,0-37.41-13.41-37.41-32.44ZM1139.6,847.21c12.54,0,19.25-9.08,20.33-20.55h-16.22c-10.6,0-16.44,3.89-16.44,11.03,0,5.84,4.11,9.52,12.33,9.52Z"/>
    <path class="cls-7" d="M1205.34,833.8h32.22c1.51,8,8.43,13.41,18.6,13.41,8.22,0,11.89-3.03,11.89-7.35,0-16.44-60.55-6.06-60.55-47.8,0-20.98,17.3-34.17,45.85-34.17,26.38,0,45.63,14.27,47.36,37.41h-32.44c-1.3-7.57-7.35-12.54-15.35-12.54-7.35,0-11.25,3.03-11.25,7.35,0,17.3,60.56,5.84,60.34,48.45,0,19.68-14.49,34.39-45.63,34.39s-49.31-13.84-51.04-39.15Z"/>
    <path class="cls-7" d="M1314.56,717.02h34.6v54.07c7.57-9.73,18.81-13.19,30.49-13.19,27.03,0,40.88,18.82,40.88,44.77v67.91h-34.6v-60.34c0-13.62-6.49-20.76-17.95-20.76-12.11,0-18.81,8-18.81,20.98v60.12h-34.6v-153.55Z"/>
    <path class="cls-7" d="M916.23,748.57c-.75-2.75-4.4-3.84-6.49-1.52l-22.53,24.98c-1.31,1.45-1.31,3.65,0,5.1l22.53,24.98c2.09,2.32,5.74,1.23,6.49-1.52v-52.02Z"/>
    <path class="cls-2" d="M946.92,757.89c-7.53,0-14.49,1.07-20.81,3.06v40.35c3.94-7.55,11.29-12.05,20.81-12.05,14.49,0,24.22,10.38,24.22,26.17s-9.73,26.17-24.22,26.17-24.01-10.38-24.01-26.17c0-2.92.33-5.66.95-8.18-1.89,2.78-4.75,4.83-8.14,5.64-1.05.25-2.11.37-3.17.37-3.82,0-7.52-1.61-10.15-4.52l-11.46-12.71c-1.86,5.97-2.85,12.47-2.85,19.4,0,33.74,23.14,57.53,58.83,57.53s58.83-23.79,58.83-57.53-23.36-57.53-58.83-57.53Z"/>
    <path class="cls-9" d="M1029.53,757.89c-33.8,0-56.64,21.69-58.46,53.41.91,1.11,1.33,2.59,1.25,4.05h33.43c.03-15.96,9.53-26.1,24-26.1,10.81,0,18.6,6.06,21.19,16.22h35.25c-3.89-28.76-23.36-47.58-56.66-47.58Z"/>
    <path class="cls-7" d="M855.02,826.02v-37.2h27.72l-7.01-7.77c-3.33-3.69-3.33-9.25,0-12.94l7.07-7.84h-27.78v-26.82h-31.57v9.51c0,10.38-5.41,18.17-18.17,18.17h-17.28c8.85,7.18,15.52,16.59,19.58,27.68h12.84v44.12c0,23.14,10.38,40.01,39.15,40.01,7.79,0,13.84-.86,20.55-2.38v-28.55c-2.16.43-5.62,1.08-9.08,1.08-12.11,0-16-4.97-16-17.09Z"/>
    <path class="cls-7" d="M1050.53,825.58c-2.6,9.76-10.41,15.61-21.03,15.61-7.14,0-13.06-2.53-17.25-6.96-.06.18-.14.36-.21.54-3.07,11.33-8.8,21.06-16.64,28.7,9.25,5.86,20.73,9.15,33.88,9.15,33.39,0,52.68-18.64,56.8-47.05h-35.55Z"/>
  </g>
  <g>
    <path class="cls-6" d="M499.47,194.2h49.09l36.12,105.76,36.12-105.76h49.09v151.39h-35.25v-97.97l-34.39,97.97h-31.14l-34.17-97.97v97.97h-35.47v-151.39Z"/>
    <path class="cls-6" d="M682,290.44c0-33.74,23.14-57.53,58.83-57.53s58.83,23.79,58.83,57.53-23.36,57.53-58.83,57.53-58.83-23.79-58.83-57.53ZM740.83,316.61c14.49,0,24.22-10.38,24.22-26.17s-9.73-26.17-24.22-26.17-24.01,10.38-24.01,26.17,9.52,26.17,24.01,26.17Z"/>
    <path class="cls-6" d="M1093.1,315.09c0-24.66,20.33-36.55,49.53-36.55h17.3v-2.59c0-9.73-6.06-15.36-14.71-15.36-8,0-12.76,3.46-14.49,10.38h-34.6c2.16-24.01,20.33-38.06,49.53-38.06,32.44,0,48.88,18.17,48.88,46.28v66.4h-34.6v-11.03c-3.68,6.71-14.06,12.98-29.41,12.98-24.66,0-37.41-13.41-37.41-32.44ZM1139.6,322.23c12.54,0,19.25-9.08,20.33-20.55h-16.22c-10.6,0-16.44,3.89-16.44,11.03,0,5.84,4.11,9.52,12.33,9.52Z"/>
    <path class="cls-6" d="M1205.34,308.82h32.22c1.51,8,8.43,13.41,18.6,13.41,8.22,0,11.89-3.03,11.89-7.35,0-16.44-60.55-6.06-60.55-47.8,0-20.98,17.3-34.17,45.85-34.17,26.38,0,45.63,14.27,47.36,37.41h-32.44c-1.3-7.57-7.35-12.54-15.35-12.54-7.35,0-11.25,3.03-11.25,7.35,0,17.3,60.56,5.84,60.34,48.45,0,19.68-14.49,34.39-45.63,34.39s-49.31-13.84-51.04-39.15Z"/>
    <path class="cls-6" d="M1314.56,192.03h34.6v54.07c7.57-9.73,18.81-13.19,30.49-13.19,27.03,0,40.88,18.82,40.88,44.77v67.91h-34.6v-60.34c0-13.62-6.49-20.76-17.95-20.76-12.11,0-18.81,8-18.81,20.98v60.12h-34.6v-153.55Z"/>
    <path class="cls-6" d="M916.23,223.59c-.75-2.75-4.4-3.84-6.49-1.52l-22.53,24.98c-1.31,1.45-1.31,3.65,0,5.1l22.53,24.98c2.09,2.32,5.74,1.23,6.49-1.52v-52.02Z"/>
    <path class="cls-5" d="M946.92,232.91c-7.53,0-14.49,1.07-20.81,3.06v40.35c3.94-7.55,11.29-12.05,20.81-12.05,14.49,0,24.22,10.38,24.22,26.17s-9.73,26.17-24.22,26.17-24.01-10.38-24.01-26.17c0-2.92.33-5.66.95-8.18-1.89,2.78-4.75,4.83-8.14,5.64-1.05.25-2.11.37-3.17.37-3.82,0-7.52-1.61-10.15-4.52l-11.46-12.71c-1.86,5.97-2.85,12.47-2.85,19.4,0,33.74,23.14,57.53,58.83,57.53s58.83-23.79,58.83-57.53-23.36-57.53-58.83-57.53Z"/>
    <path class="cls-4" d="M1029.53,232.91c-33.8,0-56.64,21.69-58.46,53.41.91,1.11,1.33,2.59,1.25,4.05h33.43c.03-15.96,9.53-26.1,24-26.1,10.81,0,18.6,6.06,21.19,16.22h35.25c-3.89-28.76-23.36-47.58-56.66-47.58Z"/>
    <path class="cls-6" d="M855.02,301.03v-37.2h27.72l-7.01-7.77c-3.33-3.69-3.33-9.25,0-12.94l7.07-7.84h-27.78v-26.82h-31.57v9.51c0,10.38-5.41,18.17-18.17,18.17h-17.28c8.85,7.18,15.52,16.59,19.58,27.68h12.84v44.12c0,23.14,10.38,40.01,39.15,40.01,7.79,0,13.84-.86,20.55-2.38v-28.55c-2.16.43-5.62,1.08-9.08,1.08-12.11,0-16-4.97-16-17.09Z"/>
    <path class="cls-6" d="M1050.53,300.59c-2.6,9.76-10.41,15.61-21.03,15.61-7.14,0-13.06-2.53-17.25-6.96-.06.18-.14.36-.21.54-3.07,11.33-8.8,21.06-16.64,28.7,9.25,5.86,20.73,9.15,33.88,9.15,33.39,0,52.68-18.64,56.8-47.05h-35.55Z"/>
  </g>
  <g>
    <rect class="cls-1" y="1080.05" width="640" height="341.61"/>
    <rect class="cls-3" x="640" y="1080" width="640" height="341.61"/>
    <rect class="cls-8" x="1280" y="1080" width="640" height="341.61"/>
  </g>
</svg>